<?xml version="1.0" encoding="utf-8"?>
<!-- Generator: Adobe Illustrator 25.4.1, SVG Export Plug-In . SVG Version: 6.00 Build 0)  -->
<svg version="1.1" id="Capa_1" xmlns="http://www.w3.org/2000/svg" xmlns:xlink="http://www.w3.org/1999/xlink" x="0px" y="0px"
	 viewBox="0 0 694 209" style="enable-background:new 0 0 694 209;" xml:space="preserve">
<style type="text/css">
	.st0{fill:#070035;}
	.st1{fill:#00193E;}
	.st2{fill:#05002A;}
	.st3{fill:#051E56;stroke:#05002A;stroke-width:3;stroke-miterlimit:10;}
</style>
<g>
	<path class="st0" d="M104.9,104.5c0,5.9-0.3,11.5-0.9,16.9H55.1c-0.6-5.4-1.1-11-1.1-16.9s0.6-11.5,1.1-16.9H104
		C104.6,93,104.9,98.6,104.9,104.5z M144.9,87.6c1.4,5.4,2.1,11,2.1,16.9c0,5.8-0.7,11.5-2.1,16.9h-32.5c0.6-5.4,0.8-11.3,0.8-16.9
		c0-5.8-0.3-11.4-0.8-16.9H144.9z M142.2,79.1h-30.8c-2.6-16.8-7.9-30.9-14.6-40C117.5,44.6,134.2,59.6,142.2,79.1z M102.8,79.1
		H56.3c1.6-9.6,4.1-18.1,7.1-25c2.8-6.2,5.9-10.7,8.8-13.6c3-2.8,5.4-3.6,7.3-3.6c1.9,0,4.4,0.8,7.3,3.6c3,2.8,6.1,7.4,8.8,13.6
		C98.8,61,101.2,69.5,102.8,79.1L102.8,79.1z M17,79.1c7.9-19.5,24.7-34.5,45.3-40c-6.7,9-11.9,23.1-14.6,40H17z M46.7,87.6
		c-0.6,5.4-1.1,11.1-1.1,16.9c0,5.6,0.5,11.4,1.1,16.9H14.2c-1.4-5.4-2.1-11-2.1-16.9c0-5.8,0.7-11.5,2.1-16.9H46.7z M63.4,154.7
		c-3-6.9-5.5-15.3-7.1-24.9h46.6c-1.6,9.6-4.1,18.1-7.1,24.9c-2.8,6.2-5.9,10.8-8.8,13.6c-3,2.8-5.4,3.6-7.6,3.6
		c-1.7,0-4.1-0.8-7.1-3.6C69.3,165.5,66.2,161,63.4,154.7L63.4,154.7z M62.3,169.7c-20.7-5.5-37.4-20.4-45.3-40h30.8
		C50.4,146.6,55.6,160.7,62.3,169.7L62.3,169.7z M96.8,169.7c6.7-9,11.9-23.1,14.6-40h30.8C134.2,149.3,117.5,164.3,96.8,169.7
		L96.8,169.7z"/>
</g>
<g>
	<path class="st1" d="M341.9,94.1h-12.5v-4.5h30.4v4.5h-12.6v36.6h-5.4V94.1z"/>
	<path class="st1" d="M361.5,110.3c0-3.5-0.1-6.5-0.2-9.2h4.7l0.2,5.8h0.2c1.3-4,4.6-6.5,8.2-6.5c0.6,0,1,0.1,1.5,0.2v5.1
		c-0.5-0.1-1.1-0.2-1.8-0.2c-3.8,0-6.5,2.9-7.2,6.9c-0.1,0.7-0.2,1.6-0.2,2.5v15.7h-5.3V110.3z"/>
	<path class="st1" d="M397.5,130.7l-0.4-3.7h-0.2c-1.6,2.3-4.8,4.4-9,4.4c-6,0-9-4.2-9-8.5c0-7.1,6.3-11,17.8-11v-0.6
		c0-2.4-0.7-6.8-6.7-6.8c-2.7,0-5.6,0.9-7.7,2.2l-1.2-3.5c2.4-1.6,6-2.6,9.7-2.6c9,0,11.2,6.2,11.2,12.1v11c0,2.6,0.1,5.1,0.5,7.1
		H397.5z M396.7,115.6c-5.9-0.1-12.5,0.9-12.5,6.7c0,3.5,2.3,5.1,5.1,5.1c3.8,0,6.3-2.4,7.1-4.9c0.2-0.5,0.3-1.2,0.3-1.7V115.6z"/>
	<path class="st1" d="M436,87.3V123c0,2.6,0.1,5.6,0.2,7.6h-4.8l-0.2-5.1h-0.1c-1.6,3.3-5.2,5.8-10.1,5.8c-7.1,0-12.6-6-12.6-15
		c-0.1-9.8,6-15.9,13.2-15.9c4.5,0,7.6,2.1,8.9,4.5h0.1V87.3H436z M430.7,113.1c0-0.7-0.1-1.6-0.2-2.3c-0.8-3.4-3.7-6.2-7.7-6.2
		c-5.6,0-8.8,4.9-8.8,11.4c0,6,2.9,10.9,8.7,10.9c3.6,0,6.9-2.4,7.9-6.4c0.2-0.7,0.2-1.5,0.2-2.3V113.1z"/>
	<path class="st1" d="M447.9,116.9c0.1,7.3,4.8,10.2,10.1,10.2c3.8,0,6.2-0.7,8.2-1.5l0.9,3.8c-1.9,0.9-5.1,1.8-9.8,1.8
		c-9.1,0-14.5-6-14.5-14.9c0-8.9,5.2-15.9,13.8-15.9c9.6,0,12.2,8.5,12.2,13.9c0,1.1-0.1,2-0.2,2.5H447.9z M463.7,113
		c0.1-3.4-1.4-8.7-7.4-8.7c-5.4,0-7.8,5-8.2,8.7H463.7z"/>
	<path class="st1" d="M487.7,125.2c1.6,1,4.4,2.1,7.1,2.1c3.9,0,5.7-2,5.7-4.4c0-2.6-1.5-4-5.5-5.4c-5.3-1.9-7.8-4.8-7.8-8.4
		c0-4.8,3.8-8.7,10.2-8.7c3,0,5.6,0.9,7.3,1.8l-1.3,3.9c-1.2-0.7-3.3-1.7-6-1.7c-3.2,0-4.9,1.8-4.9,4c0,2.4,1.8,3.5,5.6,5
		c5.1,2,7.7,4.5,7.7,8.9c0,5.2-4,8.8-11,8.8c-3.2,0-6.2-0.8-8.3-2L487.7,125.2z"/>
	<path class="st1" d="M515.6,116.9c0.1,7.3,4.8,10.2,10.1,10.2c3.8,0,6.2-0.7,8.2-1.5l0.9,3.8c-1.9,0.9-5.1,1.8-9.8,1.8
		c-9.1,0-14.5-6-14.5-14.9c0-8.9,5.2-15.9,13.8-15.9c9.6,0,12.2,8.5,12.2,13.9c0,1.1-0.1,2-0.2,2.5H515.6z M531.3,113
		c0.1-3.4-1.4-8.7-7.4-8.7c-5.4,0-7.8,5-8.2,8.7H531.3z"/>
	<path class="st1" d="M543.2,110.3c0-3.5-0.1-6.5-0.2-9.2h4.7l0.2,5.8h0.2c1.3-4,4.6-6.5,8.2-6.5c0.6,0,1,0.1,1.5,0.2v5.1
		c-0.5-0.1-1.1-0.2-1.8-0.2c-3.8,0-6.5,2.9-7.2,6.9c-0.1,0.7-0.2,1.6-0.2,2.5v15.7h-5.3V110.3z"/>
	<path class="st1" d="M566.7,101.1l5.8,16.6c1,2.7,1.8,5.1,2.4,7.6h0.2c0.7-2.4,1.5-4.9,2.5-7.6l5.7-16.6h5.6l-11.6,29.5h-5.1
		L561,101.1H566.7z"/>
	<path class="st1" d="M599.9,92.8c0.1,1.8-1.3,3.3-3.4,3.3c-1.9,0-3.2-1.5-3.2-3.3c0-1.9,1.4-3.4,3.4-3.4
		C598.7,89.5,599.9,90.9,599.9,92.8z M594,130.7v-29.5h5.4v29.5H594z"/>
	<path class="st1" d="M629.3,129.6c-1.4,0.7-4.5,1.7-8.5,1.7c-8.9,0-14.7-6-14.7-15.1c0-9.1,6.2-15.7,15.9-15.7c3.2,0,6,0.8,7.4,1.5
		l-1.2,4.1c-1.3-0.7-3.3-1.4-6.2-1.4c-6.8,0-10.4,5-10.4,11.2c0,6.8,4.4,11,10.2,11c3.1,0,5.1-0.8,6.6-1.5L629.3,129.6z"/>
	<path class="st1" d="M638.2,116.9c0.1,7.3,4.8,10.2,10.1,10.2c3.8,0,6.2-0.7,8.2-1.5l0.9,3.8c-1.9,0.9-5.1,1.8-9.8,1.8
		c-9.1,0-14.5-6-14.5-14.9c0-8.9,5.2-15.9,13.8-15.9c9.6,0,12.2,8.5,12.2,13.9c0,1.1-0.1,2-0.2,2.5H638.2z M653.9,113
		c0.1-3.4-1.4-8.7-7.4-8.7c-5.4,0-7.8,5-8.2,8.7H653.9z"/>
	<path class="st1" d="M665,125.2c1.6,1,4.4,2.1,7.1,2.1c3.9,0,5.7-2,5.7-4.4c0-2.6-1.5-4-5.5-5.4c-5.3-1.9-7.8-4.8-7.8-8.4
		c0-4.8,3.8-8.7,10.2-8.7c3,0,5.6,0.9,7.3,1.8l-1.3,3.9c-1.2-0.7-3.3-1.7-6-1.7c-3.2,0-4.9,1.8-4.9,4c0,2.4,1.8,3.5,5.6,5
		c5.1,2,7.7,4.5,7.7,8.9c0,5.2-4,8.8-11,8.8c-3.2,0-6.2-0.8-8.3-2L665,125.2z"/>
</g>
<g>
	<path class="st2" d="M182.7,123.9V83.7h-6.8V77h41.6v16.2h-6.6v-9.5h-20.1v15.9h17.3v6.7h-17.3v17.6h6.9v6.7h-21.8v-6.7H182.7z"/>
	<path class="st2" d="M226.4,123.9V83.7h-7.3V77h20.8c5.7,0,10.2,0.3,13.2,0.9c3.1,0.6,6.1,1.9,9,4c2.9,2.1,5.2,4.9,7,8.6
		c1.7,3.6,2.6,7.8,2.6,12.4c0,5.3-0.8,9.9-2.5,13.8c-1.7,3.9-3.9,6.8-6.6,8.8s-5.9,3.3-9.7,4c-3.7,0.8-8.5,1.1-14.3,1.1h-19.5v-6.7
		H226.4z M234.5,123.9h4.2c4.7,0,8.5-0.3,11.2-0.9c2.8-0.6,5.1-1.6,7-3c1.9-1.4,3.4-3.6,4.6-6.5c1.2-2.9,1.8-6.3,1.8-10.2
		c0-4.7-1-8.6-2.9-11.8c-1.9-3.2-4.4-5.4-7.4-6.3c-3-1-7.7-1.5-13.9-1.5h-4.6V123.9z"/>
</g>
<line class="st3" x1="307" y1="73.3" x2="307" y2="135.7"/>
</svg>
